<svg xmlns="http://www.w3.org/2000/svg" viewBox="0 0 190 100">
  <defs>
    <style>
      .a {
        font-size: 40px;
      }

      .a, .b, .g {
        fill: #1d1d1b;
      }

      .a, .b {
        font-family: FrutigerLTCom-Roman, Frutiger LT Com;
      }

      .b {
        font-size: 6.5px;
      }

      .c {
        letter-spacing: -0.01998em;
      }

      .d {
        letter-spacing: -0.00008em;
      }

      .e {
        letter-spacing: -0.07399em;
      }

      .f {
        letter-spacing: -0.01991em;
      }

      .h {
        fill: #009879;
      }

      .i {
        fill: #fff;
      }
    </style>
  </defs>
  <g>
    <g>
      <text class="a" transform="translate(47.31866 47.88885)">WOPY</text>
      <text class="b" transform="translate(53.12778 58.94556)">IWES<tspan class="c" x="15.1709" y="0"> </tspan><tspan class="d" x="16.84814" y="0">Optimization</tspan><tspan class="c" x="56.93945" y="0"> </tspan><tspan class="e" x="58.6167" y="0">T</tspan><tspan x="61.74951" y="0">ools</tspan><tspan class="c" x="74.02783" y="0"> </tspan><tspan x="75.70508" y="0">in</tspan><tspan class="f" x="81.4834" y="0"> </tspan><tspan x="83.16064" y="0">Python</tspan></text>
    </g>
    <g>
      <g>
        <path class="g" d="M46.32251,50.33716l-.00226.00073C46.35077,50.33075,46.35675,50.32935,46.32251,50.33716Z"/>
        <path class="g" d="M47.31866,47.84845c-2.71093.58075-7.53143,3.74731-8.26062-2.11566V29.16412h-5.5769S33.03248,41.383,20.80853,53.89362c-1.11745,1.14365-1.95747,2.04255-1.95747,2.04255,4.17022-1.53191,13.838-9.79909,14.707-12.65956v2.38294H33.558l.00006.001v.19055l.01227.00177c.12763,9.787,4.94031,9.787,11.07971,4.8902C45.0434,50.42926,48.8233,47.52606,47.31866,47.84845Z"/>
      </g>
      <rect class="h" x="33.64791" y="20.17979" width="5.6" height="5.6"/>
    </g>
    <g>
      <rect class="i" x="86.2766" y="71.14374" width="11.46815" height="11.46819"/>
      <g>
        <path class="h" d="M86.2766,82.60606a100.50391,100.50391,0,0,0,11.46815-6.95887v-1.109a99.72192,99.72192,0,0,1-11.46815,6.3434Z"/>
        <path class="h" d="M86.2766,79.29634a87.74782,87.74782,0,0,0,11.46815-5.61092v-.5471A50.795,50.795,0,0,1,86.2766,77.05247Z"/>
        <path class="h" d="M97.74475,82.61181V77.03535c-2.61083,2.19056-5.19612,4.08614-7.36839,5.57646Z"/>
        <path class="h" d="M88.91,82.61181a80.2552,80.2552,0,0,0,7.05881-4.666q.87315-.65073,1.77591-1.342V75.913a97.73992,97.73992,0,0,1-10.39907,6.69882Z"/>
        <path class="h" d="M86.2766,76.24187a45.42984,45.42984,0,0,0,11.46815-3.53964v-.6215A35.11844,35.11844,0,0,1,86.2766,74.923Z"/>
        <path class="h" d="M86.2766,71.14374v3.19482q.37559-.02312.7671-.05332a32.86079,32.86079,0,0,0,10.701-2.47064v-.67086Z"/>
      </g>
      <path class="g" d="M153.35834,82.61076h1.46718V80.541c0-.81044,0-2.30015,1.19259-2.30015a1.48921,1.48921,0,0,1,.65849.12031v-1.4783a1.61313,1.61313,0,0,0-.45-.0439,1.72768,1.72768,0,0,0-1.54336,1.41216h-.02278V76.9707h-1.30211Zm-1.468-1.51084a3.80678,3.80678,0,0,1-1.87357.56948,1.47575,1.47575,0,0,1-1.60927-1.42523h3.89805c0-1.97107-.59063-3.4052-2.68292-3.4052-1.75094,0-2.61616,1.34682-2.61616,2.97887a2.67954,2.67954,0,0,0,2.94585,2.92464,3.86918,3.86918,0,0,0,1.938-.44939Zm-3.48284-1.86212a1.27848,1.27848,0,0,1,1.303-1.32574c.82241,0,1.15153.614,1.19429,1.32574Zm-4.68676,3.373h1.46718V78.04351h1.28075V76.9707h-1.28075v-.70124c0-.438.15346-.86518.64707-.86518a1.1319,1.1319,0,0,1,.63368.19792l.12089-1.216a5.17461,5.17461,0,0,0-1.0728-.1206,1.72407,1.72407,0,0,0-1.796,1.9169v.78818H142.6365v1.07281h1.08421Zm-5.83716-2.958a1.438,1.438,0,1,1,2.83658,0c0,.94306-.29486,1.95056-1.42357,1.95056-1.11816,0-1.413-1.01891-1.413-1.95056m-1.5345.17623a2.952,2.952,0,0,0,5.90359,0,2.952,2.952,0,1,0-5.90359,0m-6.11008,2.7818H131.707v-2.761c0-.72119.23012-1.8724,1.29265-1.8724.94192,0,.95252.93165.95252,1.62144v3.012h1.46661V79.05129c0-1.27011-.58032-2.21232-1.91577-2.21232a2.095,2.095,0,0,0-1.77263.89827H131.707v-3.3399H130.239Zm-6.69069,0h1.46751v-2.761c0-.72119.2304-1.8724,1.29184-1.8724.941,0,.95244.93165.95244,1.62144v3.012H128.729V79.05129c0-1.27011-.58089-2.21232-1.91719-2.21232a2.10434,2.10434,0,0,0-1.85018.89827h-.02339V76.9707h-1.38995Zm-1.51139-5.64006h-1.46876v2.75987c0,.72232-.2296,1.87272-1.292,1.87272-.94237,0-.953-.93169-.953-1.62181V76.9707H116.8559v3.55946c0,1.27016.58048,2.21232,1.9165,2.21232a2.35219,2.35219,0,0,0,1.85075-.89883h.02225v.76711h1.39149Zm-10.01121,4.00805c0-.86521.97469-.975,1.63216-.975h.63538a1.87125,1.87125,0,0,1-.307,1.16152,1.2491,1.2491,0,0,1-1.02935.50414c-.5257,0-.9312-.209-.9312-.69065m-.744-2.45271a2.94161,2.94161,0,0,1,1.741-.614c.86477,0,1.27059.30654,1.27059,1.21651h-.81031a4.45039,4.45039,0,0,0-1.89469.32823,1.65656,1.65656,0,0,0-.96345,1.61007,1.79891,1.79891,0,0,0,1.971,1.67561,2.015,2.015,0,0,0,1.741-.97441h.02225a7.06045,7.06045,0,0,0,.06542.84269h1.2924c-.03322-.43888-.05446-.83326-.066-1.25956-.01068-.41606-.02164-.84385-.02164-1.41305V79.215c0-1.66424-.712-2.376-2.43095-2.376a5.05678,5.05678,0,0,0-1.96055.42715ZM106.868,82.61076h1.46774V80.541c0-.81044,0-2.30015,1.19317-2.30015a1.48535,1.48535,0,0,1,.65759.12031v-1.4783a1.59959,1.59959,0,0,0-.44928-.0439,1.72849,1.72849,0,0,0-1.54393,1.41216h-.022V76.9707H106.868Zm-5.30034,0h1.53309V79.25949h2.58489V78.05435h-2.58489V76.17078h2.71609V74.96654h-4.24918Z"/>
      <g>
        <path class="g" d="M144.59811,86.05293h.736v3.67121h-.736Z"/>
        <path class="g" d="M145.7498,86.05293h.77318l.68389,2.93472h.01027l.62583-2.93472h.99958l.64675,2.93472H149.5l.68862-2.93472h.71552l-.95729,3.67121h-.94666l-.66257-2.93477H148.327l-.65229,2.93477h-.95179Z"/>
        <path class="g" d="M151.38257,86.05293h2.16709v.57842H152.119v.90478h1.30972v.57838H152.119v1.03081h1.44089v.57882h-2.17733Z"/>
        <path class="g" d="M155.53218,86.56856a.8559.8559,0,0,0-.18922.02091.554.554,0,0,0-.18925.07861.41605.41605,0,0,0-.14225.15807.49727.49727,0,0,0-.05765.25245.27434.27434,0,0,0,.07347.1944.78447.78447,0,0,0,.18412.14221,2.32533,2.32533,0,0,0,.26313.11578q.13631.05748.28919.12089a2.25844,2.25844,0,0,1,.29432.1367,1.04878,1.04878,0,0,1,.25764.205.98075.98075,0,0,1,.18408.27895,1.15,1.15,0,0,1,.06323.40494.96239.96239,0,0,1-.405.85183,1.74148,1.74148,0,0,1-.97311.25759,2.30859,2.30859,0,0,1-.47845-.04188q-.19971-.03671-.46263-.1l.06834-.66256a1.70015,1.70015,0,0,0,.83086.226.89174.89174,0,0,0,.43658-.11575.39218.39218,0,0,0,.21572-.35756.39847.39847,0,0,0-.0632-.226.62778.62778,0,0,0-.18412-.158,4.86552,4.86552,0,0,0-.55232-.24181,2.065,2.065,0,0,1-.28923-.14735,1.38972,1.38972,0,0,1-.26313-.18925.99223.99223,0,0,1-.18408-.27892.92688.92688,0,0,1-.07351-.38365.99428.99428,0,0,1,.405-.87315,1.571,1.571,0,0,1,.87829-.24731,2.82614,2.82614,0,0,1,.87828.13156l-.06837.60488A1.91941,1.91941,0,0,0,155.53218,86.56856Z"/>
      </g>
    </g>
  </g>
</svg>
