<?xml version="1.0" encoding="UTF-8"?>
<svg id="a" data-name="Varianten" xmlns="http://www.w3.org/2000/svg" viewBox="0 0 190 100">
  <defs>
    <style>
      .f {
        fill: #fff;
      }

      .g {
        letter-spacing: -.07399em;
      }

      .h {
        letter-spacing: -.01998em;
      }

      .i {
        letter-spacing: -.00008em;
      }

      .j {
        font-size: 6.5px;
      }

      .j, .k {
        font-family: FrutigerLTCom-Roman, 'Frutiger LT Com';
      }

      .j, .k, .l {
        fill: #1d1d1b;
      }

      .k {
        font-size: 40px;
      }

      .m {
        fill: #009879;
      }

      .n {
        letter-spacing: -.01991em;
      }
    </style>
  </defs>
  <rect id="b" data-name="BGD weiß" class="f" x="-14.80851" y="-8.12739" width="237.16406" height="142.5742"/>
  <g id="c" data-name="IWOPY">
    <g>
      <text class="k" transform="translate(47.31866 47.88885)"><tspan x="0" y="0">WOPY</tspan></text>
      <text class="j" transform="translate(53.12778 58.94556)"><tspan x="0" y="0">IWES</tspan><tspan class="h" x="15.1709" y="0"> </tspan><tspan class="i" x="16.84814" y="0">Optimization</tspan><tspan class="h" x="56.93945" y="0"> </tspan><tspan class="g" x="58.6167" y="0">T</tspan><tspan x="61.74951" y="0">ools</tspan><tspan class="h" x="74.02783" y="0"> </tspan><tspan x="75.70508" y="0">in</tspan><tspan class="n" x="81.4834" y="0"> </tspan><tspan x="83.16064" y="0">Python</tspan></text>
    </g>
    <g>
      <g>
        <path class="l" d="M46.32251,50.33716c-.00079,.00024-.00146,.00055-.00226,.00073,.03052-.00714,.0365-.00854,.00226-.00073Z"/>
        <path class="l" d="M47.31866,47.84845c-2.71094,.58075-7.53143,3.74731-8.26062-2.11566V29.16412h-5.5769s-.44866,12.21886-12.67261,24.72949c-1.11745,1.14366-1.95747,2.04255-1.95747,2.04255,4.17021-1.53191,13.83796-9.79909,14.70698-12.65956v2.38293h-.00006c0,.00037,.00006,.00061,.00006,.00098v.19055c.00378,0,.00842,.00171,.01227,.00177,.12762,9.78699,4.94031,9.78699,11.07971,4.8902,.39337-.31378,4.17328-3.21698,2.66864-2.89459Z"/>
      </g>
      <rect class="m" x="33.64791" y="20.17979" width="5.6" height="5.6"/>
    </g>
    <g id="d" data-name="Logo">
      <rect id="e" data-name="Logoweiß" class="f" x="86.2766" y="71.14374" width="11.46815" height="11.46819"/>
      <g>
        <path class="m" d="M86.2766,82.60606c2.72835-1.39727,6.72467-3.65599,11.46815-6.95888v-1.10897c-4.17461,2.71763-8.42003,4.90017-11.46815,6.3434v1.72445Z"/>
        <path class="m" d="M86.2766,79.29634c3.03752-1.2316,7.28354-3.13377,11.46815-5.61092v-.5471c-3.93325,1.94182-8.0197,3.15687-11.46815,3.91415v2.24388Z"/>
        <path class="m" d="M97.74475,82.61181v-5.57645c-2.61082,2.19055-5.19612,4.08613-7.36838,5.57645h7.36838Z"/>
        <path class="m" d="M88.91003,82.61181c2.06214-1.21792,4.56591-2.80805,7.0588-4.66601,.5821-.43382,1.17548-.88051,1.77591-1.34196v-.69085c-3.69014,2.75214-7.45654,5.04622-10.39907,6.69882h1.56436Z"/>
        <path class="m" d="M86.2766,76.24187c3.35459-.58756,7.45812-1.64321,11.46815-3.53964v-.6215c-4.04102,1.80463-8.08549,2.57012-11.46815,2.84228v1.31886Z"/>
        <path class="m" d="M86.2766,71.14374v3.19482c.25039-.01541,.50596-.03334,.76711-.05332,2.78855-.21337,6.59423-.70395,10.70104-2.47064v-.67086h-11.46815Z"/>
      </g>
      <path class="l" d="M153.35834,82.61076h1.46718v-2.06975c0-.81044,0-2.30015,1.1926-2.30015,.26325,0,.52671,.04276,.65848,.12032v-1.4783c-.15511-.0439-.308-.0439-.45001-.0439-.87602,0-1.47778,.88799-1.54336,1.41216h-.02278v-1.28043h-1.30211v5.64005Zm-1.46803-1.51083c-.54755,.30626-1.16011,.56948-1.87357,.56948-.90717,0-1.54223-.5147-1.60926-1.42523h3.89805c0-1.97107-.59063-3.4052-2.68292-3.4052-1.75095,0-2.61616,1.34682-2.61616,2.97886,0,1.85156,1.08336,2.92465,2.94585,2.92465,.78932,0,1.40071-.15341,1.93802-.4494v-1.19316Zm-3.48284-1.86212c.06704-.75627,.4814-1.32574,1.30296-1.32574,.82241,0,1.15153,.61398,1.1943,1.32574h-2.49726Zm-4.68676,3.37295h1.46718v-4.56725h1.28075v-1.0728h-1.28075v-.70124c0-.43799,.15345-.86518,.64707-.86518,.31654,0,.50333,.12121,.63368,.19792l.12089-1.21598c-.28401-.06558-.70039-.1206-1.0728-.1206-1.16124,0-1.79601,.78819-1.79601,1.9169v.78819h-1.08421v1.0728h1.08421v4.56725Zm-5.83716-2.95803c0-.84268,.45939-1.67537,1.41301-1.67537,.96389,0,1.42357,.811,1.42357,1.67537,0,.94306-.29485,1.95056-1.42357,1.95056-1.11816,0-1.41301-1.01891-1.41301-1.95056m-1.5345,.17623c0,1.62003,1.08591,2.91352,2.94751,2.91352,1.87272,0,2.95608-1.2935,2.95608-2.91352,0-1.86245-1.27982-2.98999-2.95608-2.98999-1.66425,0-2.94751,1.12754-2.94751,2.98999m-6.11008,2.78179h1.46807v-2.761c0-.72119,.23012-1.8724,1.29265-1.8724,.94192,0,.95252,.93165,.95252,1.62144v3.01196h1.46661v-3.55946c0-1.27011-.58032-2.21232-1.91577-2.21232-.76654,0-1.40192,.35076-1.77263,.89827h-.02338v-3.3399h-1.46807v8.21341Zm-6.69068,0h1.4675v-2.761c0-.72119,.2304-1.8724,1.29184-1.8724,.94103,0,.95244,.93165,.95244,1.62144v3.01196h1.46892v-3.55946c0-1.27011-.58088-2.21232-1.91718-2.21232-.76654,0-1.39136,.25209-1.85019,.89827h-.02338v-.76654h-1.38995v5.64005Zm-1.5114-5.64005h-1.46876v2.75987c0,.72232-.22959,1.87272-1.29196,1.87272-.94237,0-.95305-.93169-.95305-1.62181v-3.01078h-1.46722v3.55946c0,1.27015,.58048,2.21232,1.9165,2.21232,.7661,0,1.40176-.35076,1.85075-.89884h.02225v.76711h1.39148v-5.64005Zm-10.01121,4.00805c0-.86522,.97469-.97502,1.63216-.97502h.63538c0,.43864-.06586,.84297-.30699,1.16153-.23,.30541-.5802,.50414-1.02935,.50414-.5257,0-.9312-.209-.9312-.69064m-.74401-2.45272c.49249-.37358,1.11658-.61398,1.74095-.61398,.86477,0,1.2706,.30654,1.2706,1.21651h-.81032c-.61341,0-1.33646,.05336-1.89469,.32823-.55879,.27377-.96345,.76654-.96345,1.61007,0,1.0728,.97445,1.67561,1.97095,1.67561,.66787,0,1.40164-.35076,1.74099-.97441h.02225c.01125,.17425,.01125,.54609,.06542,.84268h1.2924c-.03322-.43888-.05446-.83326-.06603-1.25955-.01068-.41606-.02164-.84386-.02164-1.41305v-.72317c0-1.66425-.71197-2.37601-2.43095-2.37601-.6247,0-1.39108,.16482-1.96055,.42715l.04406,1.25992Zm-4.41371,4.08472h1.46775v-2.06975c0-.81044,0-2.30015,1.19316-2.30015,.26305,0,.52586,.04276,.65759,.12032v-1.4783c-.15341-.0439-.30654-.0439-.44928-.0439-.87578,0-1.47847,.88799-1.54393,1.41216h-.02197v-1.28043h-1.30333v5.64005Zm-5.30033,0h1.53308v-3.35127h2.58489v-1.20514h-2.58489v-1.88356h2.71609v-1.20425h-4.24918v7.64422Z"/>
      <g>
        <path class="l" d="M144.59811,86.05293h.73604v3.6712h-.73604v-3.6712Z"/>
        <path class="l" d="M145.7498,86.05293h.77318l.68389,2.93472h.01028l.62583-2.93472h.99958l.64675,2.93472h.01068l.68862-2.93472h.71553l-.9573,3.6712h-.94666l-.66257-2.93476h-.01064l-.65229,2.93476h-.9518l-.97308-3.6712Z"/>
        <path class="l" d="M151.38257,86.05293h2.16709v.57842h-1.43065v.90478h1.30972v.57838h-1.30972v1.03081h1.44088v.57882h-2.17732v-3.6712Z"/>
        <path class="l" d="M155.53218,86.56856c-.06319,0-.12643,.00672-.18922,.02092-.06679,.01384-.12999,.0403-.18926,.07861-.05652,.0352-.10353,.08771-.14225,.15807-.03872,.06675-.05765,.15091-.05765,.25245,0,.07703,.02448,.14184,.07347,.1944,.04899,.05251,.11061,.09993,.18412,.14221,.08059,.04187,.1683,.08059,.26313,.11579,.09087,.03831,.18728,.07861,.28919,.12089,.10155,.03872,.19994,.08415,.29433,.1367,.09839,.05607,.18412,.12445,.25763,.20504,.07387,.07703,.13513,.17028,.18408,.27895,.04228,.11219,.06323,.24691,.06323,.40494-.00712,.39628-.14184,.67996-.40498,.85183s-.58711,.25759-.97312,.25759c-.18922,0-.34886-.01384-.47845-.04187-.13314-.02448-.28761-.05769-.46263-.09997l.06833-.66257c.25917,.14698,.53614,.22247,.83087,.22599,.15054,0,.29635-.03831,.43657-.11575,.14026-.07703,.21216-.19634,.21572-.35756,0-.08771-.02132-.16316-.06319-.22599-.0494-.06319-.11065-.11575-.18412-.15803-.16118-.08415-.3453-.16474-.55232-.24181-.10155-.04224-.19796-.09123-.28923-.14734-.09479-.05255-.1825-.11575-.26313-.18926-.07347-.07703-.13472-.16988-.18408-.27891-.04899-.10867-.07351-.23667-.07351-.38366,.00712-.40692,.14225-.69772,.40498-.87315,.25245-.16474,.54524-.24731,.87828-.24731,.31569,0,.60844,.04386,.87829,.13157l-.06837,.60488c-.23465-.10155-.48359-.15447-.74672-.15762Z"/>
      </g>
    </g>
  </g>
</svg>